<?xml version="1.0" encoding="utf-8"?>
<!-- Generator: Adobe Illustrator 15.0.0, SVG Export Plug-In . SVG Version: 6.00 Build 0)  -->
<!DOCTYPE svg PUBLIC "-//W3C//DTD SVG 1.1//EN" "http://www.w3.org/Graphics/SVG/1.1/DTD/svg11.dtd">
<svg version="1.1"
	 id="svg2" sodipodi:version="0.32" inkscape:version="0.47 r22583" inkscape:output_extension="org.inkscape.output.svg.inkscape" xmlns:inkscape="http://www.inkscape.org/namespaces/inkscape" xmlns:sodipodi="http://sodipodi.sourceforge.net/DTD/sodipodi-0.dtd" xmlns:svg="http://www.w3.org/2000/svg" xmlns:rdf="http://www.w3.org/1999/02/22-rdf-syntax-ns#" xmlns:cc="http://creativecommons.org/ns#" xmlns:dc="http://purl.org/dc/elements/1.1/" sodipodi:docname="skype.svg"
	 xmlns="http://www.w3.org/2000/svg" xmlns:xlink="http://www.w3.org/1999/xlink" x="0px" y="0px" width="256px" height="256px"
	 viewBox="0 0 256 256" enable-background="new 0 0 256 256" xml:space="preserve">
<path id="rect1942_1_" inkscape:export-xdpi="7.7063322" inkscape:export-ydpi="7.7063322" inkscape:export-filename="C:\Documents and Settings\Molumen\Desktop\path3511111.png" fill="#A8EBFF" d="
	M209.018,10.505H44.983c-19.599,0-35.487,15.888-35.487,35.487v164.015c0,19.599,15.888,35.486,35.487,35.486h164.033
	c19.604,0,35.487-15.888,37.487-34.819V46.66C244.504,26.394,228.615,10.505,209.018,10.505z"/>
<g id="layer1" transform="translate(-373.642,-318.344)" inkscape:groupmode="layer" inkscape:label="Layer 1">
	
		<path id="path24965" sodipodi:cy="87.809601" sodipodi:type="arc" sodipodi:cx="87.88327" sodipodi:rx="46.467018" sodipodi:ry="45.961941" fill="#00C3FF" d="
		M510.982,407.133c0,25.384-20.804,45.963-46.467,45.963s-46.467-20.579-46.467-45.963s20.804-45.962,46.467-45.962
		S510.982,381.749,510.982,407.133z"/>
	
		<path id="path24965-8" sodipodi:cy="87.809601" sodipodi:type="arc" sodipodi:cx="87.88327" sodipodi:rx="46.467018" sodipodi:ry="45.961941" fill="#00C3FF" d="
		M585.734,485.42c0,25.384-20.805,45.962-46.467,45.962c-25.664,0-46.468-20.578-46.468-45.962
		c0-25.385,20.804-45.962,46.468-45.962C564.929,439.458,585.734,460.035,585.734,485.42z"/>
	
		<path id="path24989" sodipodi:cy="132.25632" sodipodi:type="arc" sodipodi:cx="113.64217" sodipodi:rx="76.266518" sodipodi:ry="85.357887" fill="#00C3FF" d="
		M582.703,445.014c0,45.189-35.729,81.822-79.802,81.822c-44.073,0-79.802-36.633-79.802-81.822
		c0-45.189,35.729-81.822,79.802-81.822C546.974,363.192,582.703,399.825,582.703,445.014z"/>
	<path id="path24997" sodipodi:nodetypes="ccccccc" fill="none" stroke="#FFFFFF" stroke-width="23" stroke-linecap="round" d="
		M535.731,413.699c-9.05-9.342-19.685-14.506-32.325-16.163c-11.583-0.575-27.216,4.729-28.285,19.193
		c-0.916,15.696,8.749,21.047,29.294,26.264c17.764,4.64,34.398,7.71,33.336,25.253c-0.377,15.746-15.618,22.789-32.325,22.224
		c-16.549-0.758-27.077-9.137-33.335-17.173"/>
</g>
<linearGradient id="SVGID_1_" gradientUnits="userSpaceOnUse" x1="85.4995" y1="-949.167" x2="85.4995" y2="-1076.7955" gradientTransform="matrix(1 0 0 -1 42.5 -938)">
	<stop  offset="0" style="stop-color:#FFFFFF;stop-opacity:0.85"/>
	<stop  offset="0.66" style="stop-color:#FFFFFF;stop-opacity:0"/>
</linearGradient>
<path fill="url(#SVGID_1_)" d="M209.018,10.505H44.983c-19.599,0-35.487,15.889-35.487,35.487v69.409
	c36.33,14.751,76.046,22.896,117.671,22.896c42.263,0,82.558-8.395,119.336-23.576V46.66
	C244.504,26.394,228.615,10.505,209.018,10.505z"/>
<g>
	
		<linearGradient id="SVGID_2_" gradientUnits="userSpaceOnUse" x1="85.5" y1="-1076.001" x2="85.5" y2="-1183.5122" gradientTransform="matrix(1 0 0 -1 42.5 -938)">
		<stop  offset="0" style="stop-color:#000000;stop-opacity:0.15"/>
		<stop  offset="0.6626" style="stop-color:#000000;stop-opacity:0"/>
	</linearGradient>
	<path fill="url(#SVGID_2_)" d="M9.496,115.401v94.605c0,19.6,15.888,35.486,35.487,35.486h164.033
		c19.604,0,35.488-15.889,37.488-34.819v-95.952c-36.779,15.181-77.074,23.576-119.337,23.576
		C85.542,138.298,45.825,130.152,9.496,115.401z"/>
</g>
<path fill="none" stroke="#A8EBFF" stroke-width="2" stroke-miterlimit="10" d="M246.503,114.721V46.66
	c-1.999-20.266-17.888-36.155-37.485-36.155H44.982c-19.599,0-35.486,15.889-35.486,35.487v69.409"/>
<g>
	<g>
		<g>
			<path fill="none" stroke="#86BCCC" stroke-width="2" stroke-miterlimit="10" d="M9.496,115.401v94.605
				c0,19.6,15.888,35.486,35.486,35.486h164.034c19.604,0,35.487-15.889,37.487-34.819v-95.952"/>
		</g>
	</g>
</g>
</svg>
